<?xml version="1.0" standalone="no"?>
<!DOCTYPE svg PUBLIC "-//W3C//DTD SVG 20010904//EN"
 "http://www.w3.org/TR/2001/REC-SVG-20010904/DTD/svg10.dtd">
<svg version="1.0" xmlns="http://www.w3.org/2000/svg"
 width="502.000000pt" height="247.000000pt" viewBox="0 0 502.000000 247.000000"
 preserveAspectRatio="xMidYMid meet">
<g transform="translate(0.000000,247.000000) scale(0.100000,-0.100000)"
fill="#000000" stroke="none">
<path d="M1590 1770 c0 -5 -7 -10 -15 -10 -8 0 -23 -9 -34 -21 -14 -16 -18
-30 -13 -61 2 -22 1 -43 -4 -47 -5 -3 -19 -27 -32 -53 -13 -27 -27 -48 -32
-48 -5 0 -12 -9 -15 -21 -16 -50 -241 -249 -282 -249 -11 0 -26 -6 -32 -14 -6
-7 -26 -16 -44 -20 -69 -13 -120 -56 -102 -86 10 -17 26 0 20 21 -6 17 -1 19
35 19 25 0 39 4 35 10 -4 6 6 10 24 10 16 0 36 7 45 15 8 8 24 15 35 15 12 0
21 4 21 9 0 5 10 13 22 16 11 4 31 17 42 29 12 13 29 25 39 29 9 3 17 11 17
17 0 5 5 10 11 10 15 0 69 56 69 70 0 6 5 8 10 5 6 -3 10 3 10 14 0 12 5 21
10 21 6 0 19 9 30 20 11 11 20 25 20 30 0 6 5 10 10 10 6 0 10 6 10 14 0 8 7
22 16 30 8 9 16 25 17 36 1 11 7 20 14 20 9 0 13 20 13 70 0 66 1 70 23 69 21
0 21 -1 2 -9 -16 -7 -13 -9 17 -9 33 -1 78 22 78 39 0 4 -20 7 -45 9 -26 1
-45 -2 -45 -9z m47 -26 c-3 -3 -12 -4 -19 -1 -8 3 -5 6 6 6 11 1 17 -2 13 -5z"/>
<path d="M3421 1754 c-14 -13 -21 -27 -17 -31 4 -4 14 1 22 11 10 14 25 19 58
19 55 -1 53 21 -2 23 -26 1 -44 -5 -61 -22z"/>
<path d="M1665 1741 c-3 -5 -1 -12 3 -15 5 -3 7 -28 4 -56 -4 -40 -1 -51 12
-56 9 -3 16 -13 16 -21 0 -21 41 -63 63 -63 9 0 17 -4 17 -10 0 -5 12 -13 28
-16 15 -4 29 -10 32 -13 11 -13 73 -41 90 -41 10 0 20 -5 22 -11 2 -6 19 -11
38 -12 19 -1 38 -6 41 -11 8 -10 -1 -46 -11 -46 -12 0 -50 -77 -50 -101 0 -11
-4 -17 -10 -14 -6 3 -10 -5 -10 -19 0 -13 -7 -31 -15 -40 -8 -8 -15 -26 -15
-40 0 -13 -7 -31 -15 -40 -8 -8 -15 -26 -15 -40 0 -16 -6 -26 -15 -26 -8 0
-14 -3 -14 -7 4 -28 -3 -73 -10 -68 -5 3 -11 -7 -13 -22 -2 -20 -9 -29 -25
-31 -15 -2 -20 -8 -17 -20 5 -14 3 -14 -10 2 -9 11 -31 20 -53 22 l-38 4 0
-226 0 -225 -83 -2 c-49 -1 -82 2 -83 8 -2 52 3 287 7 310 l5 30 -255 0 c-231
0 -255 -2 -265 -17 -11 -17 3 -18 237 -18 l248 0 1 -156 c0 -89 4 -159 10
-163 5 -3 12 -13 16 -23 5 -13 17 -16 64 -14 102 5 103 5 97 21 -4 8 -1 15 6
15 19 0 38 25 31 41 -4 8 -7 37 -6 64 0 28 2 114 3 193 1 86 6 142 12 142 6 0
10 -9 10 -19 0 -17 6 -19 38 -15 20 3 39 9 40 14 5 13 32 13 32 1 0 -5 8 -12
19 -16 30 -9 67 -45 55 -53 -16 -10 -18 -132 -3 -132 6 0 18 -8 25 -17 12 -18
16 -19 54 -22 16 -1 19 -6 15 -24 -4 -15 -1 -28 9 -36 9 -8 16 -20 16 -27 0
-8 6 -11 15 -8 8 4 15 2 15 -3 0 -5 16 -8 35 -7 24 2 38 -2 42 -11 10 -28 32
-16 31 16 -1 20 5 35 15 41 10 5 17 14 17 19 0 6 14 24 30 41 17 16 30 34 30
39 0 5 12 12 28 15 15 4 30 12 34 17 4 6 12 4 22 -6 17 -17 22 -87 6 -87 -5 0
-10 -7 -10 -15 0 -9 -7 -18 -15 -21 -8 -4 -15 -15 -15 -25 0 -10 -7 -19 -15
-19 -8 0 -15 -7 -15 -15 0 -17 -30 -55 -43 -55 -5 0 -17 10 -26 22 -11 13 -24
19 -34 15 -21 -8 -22 -27 -3 -27 8 0 16 -5 18 -12 2 -6 24 -12 49 -13 33 -1
45 -5 47 -18 4 -18 32 -24 32 -7 0 6 -4 10 -10 10 -18 0 -11 46 10 65 11 10
20 24 20 32 0 7 5 13 10 13 6 0 10 8 10 19 0 23 33 33 66 21 20 -8 24 -17 24
-49 0 -22 -7 -46 -15 -54 -7 -8 -17 -26 -21 -41 -8 -33 20 -36 37 -4 l12 22 8
-22 c5 -12 15 -22 24 -22 8 0 15 -4 15 -9 0 -5 27 -11 59 -13 33 -1 57 0 55 4
-3 4 7 15 21 24 24 16 33 34 17 34 -5 0 -18 -9 -30 -20 -26 -25 -107 -28 -116
-5 -3 8 -13 15 -22 15 -11 0 -14 5 -9 18 4 9 9 41 12 70 5 44 3 55 -13 67 -10
8 -27 15 -37 15 -25 0 -47 24 -47 50 0 11 -7 34 -15 50 -13 25 -22 30 -50 30
-34 0 -35 1 -35 38 0 36 -3 40 -45 61 -35 18 -55 21 -85 16 -22 -4 -38 -11
-35 -15 7 -12 -31 -23 -55 -15 -11 3 -20 11 -20 16 0 5 -7 9 -15 9 -9 0 -18 7
-21 15 -8 21 -74 21 -74 0 0 -8 -7 -16 -15 -16 -8 -1 -21 -2 -27 -3 -7 -1 -12
7 -10 17 2 11 -4 17 -17 17 -18 0 -19 5 -15 42 3 24 12 50 20 59 8 8 14 28 14
42 0 15 4 27 9 27 5 0 12 16 15 35 4 19 11 35 16 35 6 0 10 17 10 38 0 26 3
33 9 23 8 -12 11 -10 16 10 3 13 7 34 8 46 0 12 4 20 8 17 9 -5 19 22 19 52 0
14 4 22 10 19 6 -3 10 1 10 9 0 20 19 21 26 1 5 -11 23 -15 76 -15 58 0 69 3
64 15 -4 12 4 15 39 15 25 0 45 4 45 9 0 5 18 11 40 15 56 9 50 26 -10 26 -37
0 -50 -4 -50 -15 0 -10 -10 -14 -35 -13 -19 1 -40 -4 -48 -10 -8 -7 -17 -9
-20 -5 -4 3 -7 2 -7 -4 0 -12 -49 -5 -67 9 -7 6 -20 8 -28 4 -11 -4 -19 3 -25
19 -5 14 -22 31 -37 37 -16 7 -32 18 -36 25 -4 7 -19 13 -32 13 -14 0 -25 5
-25 10 0 6 -8 10 -18 10 -11 0 -39 11 -63 25 -24 14 -50 28 -58 32 -38 18 -81
82 -81 120 0 57 -18 90 -35 64z m395 -922 c36 -37 34 -55 -15 -103 -44 -44
-65 -52 -72 -26 -3 11 -12 20 -19 20 -10 0 -14 13 -14 40 0 29 4 40 15 40 8 0
14 3 13 8 -5 16 24 52 42 52 10 0 32 -14 50 -31z m229 -37 c-5 -2 -9 -11 -9
-21 0 -9 -8 -24 -17 -33 -23 -21 -43 -46 -43 -52 0 -3 -13 -19 -30 -36 -16
-17 -30 -35 -30 -41 0 -6 -4 -8 -9 -5 -5 3 -11 -3 -14 -13 -6 -25 -57 -24 -57
1 0 10 -6 17 -12 15 -9 -1 -13 10 -13 33 0 23 4 34 12 33 7 -2 12 0 12 5 -4
24 3 42 16 42 8 0 15 7 15 15 0 15 6 25 38 60 6 7 12 18 12 24 0 6 9 11 21 11
11 0 18 4 14 9 -3 5 5 11 17 13 16 3 33 -6 54 -26 17 -17 27 -32 23 -34z
m-714 -322 c-28 -12 -37 -12 -30 0 3 6 16 10 28 9 21 0 21 -1 2 -9z m88 3
c-13 -2 -33 -2 -45 0 -13 2 -3 4 22 4 25 0 35 -2 23 -4z"/>
<path d="M3539 1750 c0 -3 -1 -37 -2 -76 0 -53 3 -76 15 -88 9 -8 22 -29 30
-46 7 -16 19 -30 25 -30 7 0 13 -7 13 -15 0 -17 8 -27 53 -75 15 -15 27 -33
27 -39 0 -6 7 -11 15 -11 8 0 15 -7 15 -15 0 -8 5 -15 11 -15 6 0 16 -6 23
-12 8 -7 24 -20 36 -28 12 -8 28 -21 36 -27 7 -7 20 -13 29 -13 8 0 18 -7 21
-15 4 -8 17 -15 31 -15 13 0 31 -7 39 -15 9 -8 26 -15 40 -15 13 0 24 -4 24
-9 0 -11 49 -21 55 -11 8 13 -54 50 -85 50 -20 0 -30 5 -30 15 0 9 -9 15 -24
15 -13 0 -29 7 -36 15 -7 8 -21 15 -32 15 -10 0 -16 5 -13 10 3 6 0 10 -8 10
-8 0 -22 9 -32 20 -10 11 -20 18 -22 16 -5 -5 -93 83 -93 93 0 4 -11 18 -25
31 -14 13 -25 29 -25 37 0 7 -7 13 -15 13 -8 0 -15 6 -15 14 0 7 -7 19 -15 26
-8 7 -15 23 -15 35 0 13 -7 25 -15 29 -10 4 -15 20 -15 53 0 26 -5 55 -10 63
-5 8 -10 13 -11 10z"/>
<path d="M3374 1682 c3 -27 2 -52 -2 -56 -4 -4 -7 -11 -7 -16 0 -16 -70 -69
-120 -90 -27 -12 -58 -26 -67 -31 -10 -5 -27 -9 -38 -9 -11 0 -20 -4 -20 -10
0 -5 -15 -16 -34 -24 -27 -11 -36 -22 -41 -48 l-6 -33 -84 0 c-65 0 -81 3 -73
13 8 9 3 12 -18 14 -51 2 -55 3 -62 13 -16 23 -91 48 -128 42 -31 -5 -35 -4
-29 11 5 14 4 15 -6 5 -7 -7 -23 -13 -35 -13 -13 0 -29 -7 -38 -15 -8 -9 -19
-15 -23 -14 -29 5 -83 -3 -78 -11 3 -5 -6 -12 -20 -16 -14 -3 -25 -10 -25 -14
0 -4 -12 -11 -27 -15 -15 -3 -37 -17 -50 -31 -12 -13 -27 -24 -33 -24 -5 0
-10 -7 -10 -15 0 -8 -4 -15 -8 -15 -5 0 -19 -20 -31 -45 -12 -25 -27 -45 -32
-45 -5 0 -9 -21 -9 -46 0 -68 24 -86 112 -83 49 1 68 6 68 16 0 7 7 13 16 13
9 0 33 15 53 33 78 68 92 77 117 77 14 0 23 -4 19 -10 -3 -5 -2 -10 3 -10 8 0
23 -11 69 -50 7 -5 19 -10 28 -10 8 0 15 -5 15 -11 0 -13 15 -27 62 -59 21
-14 38 -28 38 -32 0 -5 4 -8 10 -8 5 0 23 -14 40 -30 17 -17 35 -30 40 -30 6
0 28 -18 50 -40 22 -22 42 -40 45 -40 3 0 11 -5 18 -10 46 -39 61 -50 69 -50
4 0 8 -22 8 -50 0 -27 4 -50 9 -50 14 0 21 43 15 88 -5 37 -3 41 18 44 13 2
22 9 21 16 -2 7 8 12 22 12 16 0 25 6 25 15 0 8 3 14 8 13 4 -1 18 4 31 11 22
12 24 12 18 -8 -3 -11 -2 -21 1 -22 40 -6 67 -2 64 9 -1 8 2 11 8 7 5 -3 10
-15 10 -26 0 -10 5 -19 10 -19 6 0 10 -65 10 -175 0 -110 4 -175 10 -175 6 0
10 30 11 68 0 37 1 134 2 215 1 82 -1 154 -5 160 -6 9 -8 9 -8 0 0 -7 -9 -13
-20 -13 -10 0 -28 -9 -39 -21 -20 -22 -41 -19 -41 7 0 8 -4 14 -10 14 -5 0
-10 16 -10 35 0 22 -6 38 -15 41 -8 4 -15 16 -15 28 0 11 -7 30 -15 40 -8 11
-15 29 -15 40 0 17 -2 18 -10 6 -8 -12 -10 -11 -10 7 0 30 -11 54 -21 47 -5
-3 -9 8 -9 24 0 16 -7 35 -15 42 -8 7 -15 21 -15 31 0 10 -4 20 -9 24 -5 3
-12 18 -16 34 -3 16 -13 32 -21 35 -9 3 -13 17 -12 35 2 26 5 29 30 26 15 -2
34 3 42 11 8 8 26 14 40 14 16 0 26 6 26 15 0 8 3 14 8 14 4 -1 18 -1 31 0 17
1 22 5 17 17 -5 13 -2 15 15 11 25 -7 51 2 43 14 -3 5 4 9 16 9 11 0 24 8 27
18 4 9 15 24 25 33 10 9 18 21 18 28 0 6 5 11 10 11 19 0 11 69 -10 90 -29 29
-33 25 -26 -28z m-647 -264 c-16 -11 10 -28 41 -28 13 0 20 -4 17 -10 -4 -6
10 -10 35 -10 34 0 41 -3 36 -15 -5 -14 8 -15 92 -13 93 3 97 2 110 -21 6 -13
12 -32 12 -43 0 -11 7 -26 15 -34 8 -9 15 -24 15 -35 0 -11 5 -17 10 -14 6 3
10 -4 10 -18 0 -14 7 -30 15 -37 8 -7 15 -23 15 -35 0 -13 7 -25 15 -29 8 -3
15 -16 15 -28 0 -13 7 -32 15 -42 8 -11 15 -26 15 -34 0 -8 8 -20 17 -27 15
-11 15 -13 -5 -19 -12 -4 -22 -11 -22 -16 0 -5 -12 -10 -27 -12 -16 -2 -27 -8
-25 -15 1 -7 -5 -13 -13 -13 -9 0 -18 -7 -21 -15 -8 -21 -28 -8 -102 64 -35
34 -66 61 -69 61 -3 0 -16 11 -29 25 -15 16 -24 20 -27 12 -3 -7 -6 -3 -6 7
-1 11 -4 17 -7 13 -3 -3 -19 8 -35 24 -15 16 -31 29 -34 29 -3 0 -20 13 -38
30 -18 16 -36 30 -40 30 -4 0 -20 11 -35 25 -15 14 -31 25 -35 25 -5 0 -15 7
-23 15 -9 9 -34 15 -58 15 -27 0 -48 -6 -56 -15 -7 -8 -19 -15 -27 -15 -7 0
-16 -7 -19 -15 -4 -8 -10 -15 -15 -15 -12 0 -49 -38 -49 -50 0 -5 -6 -7 -14
-4 -7 3 -20 -2 -29 -10 -20 -21 -83 -21 -91 -1 -3 8 -12 15 -21 15 -19 0 -19
10 0 24 9 6 17 21 18 34 0 12 7 22 14 22 7 0 13 9 13 21 0 11 4 18 9 14 5 -3
13 4 16 16 10 29 75 89 98 89 9 0 17 7 17 15 0 10 10 15 29 15 16 0 31 4 33 9
2 8 29 16 71 20 4 1 7 7 7 14 0 8 23 12 79 12 44 0 74 -3 68 -7z m640 -540
c-3 -8 -6 -5 -6 6 -1 11 2 17 5 13 3 -3 4 -12 1 -19z"/>
<path d="M1533 1472 c-3 -12 -9 -22 -14 -22 -5 0 -9 -7 -9 -15 0 -9 -7 -18
-15 -21 -8 -4 -15 -14 -15 -24 0 -10 -7 -20 -15 -24 -8 -3 -15 -12 -15 -21 0
-8 -7 -15 -16 -15 -11 0 -14 -5 -10 -16 3 -9 6 -99 6 -200 l0 -184 63 0 62 0
0 274 c0 251 -6 327 -22 268z m4 -114 c-3 -8 -6 -5 -6 6 -1 11 2 17 5 13 3 -3
4 -12 1 -19z m-22 -4 c-6 -2 -9 -71 -7 -186 3 -152 1 -186 -12 -203 l-15 -20
-2 20 c0 11 -1 100 -2 198 -1 147 1 180 13 187 8 6 20 9 25 9 7 0 7 -2 0 -5z"/>
<path d="M3538 1483 c-2 -5 -2 -131 0 -280 l4 -273 63 0 64 0 -15 36 c-11 27
-14 74 -12 207 l2 172 -27 29 c-15 16 -27 34 -27 41 0 7 -7 18 -15 25 -8 7
-15 21 -15 31 0 19 -15 26 -22 12z m75 -156 c3 -12 6 -100 6 -194 0 -145 -2
-173 -14 -173 -10 0 -15 11 -16 33 -2 106 -5 122 -16 120 -9 -2 -13 10 -13 37
0 22 5 40 10 40 6 0 10 18 10 40 0 24 -5 40 -12 40 -6 0 -4 7 5 18 21 23 22
62 2 62 -8 0 -15 7 -15 15 0 14 3 14 24 0 13 -9 26 -26 29 -38z m-46 -329 c-3
-7 -5 -2 -5 12 0 14 2 19 5 13 2 -7 2 -19 0 -25z"/>
<path d="M2376 1442 c-3 -6 10 -12 29 -14 19 -2 35 0 35 4 0 4 -6 8 -14 8 -8
0 -21 3 -29 6 -8 3 -18 1 -21 -4z"/>
<path d="M1348 1266 c-21 -20 -41 -36 -46 -36 -14 0 -54 -48 -43 -51 6 -2 11
-19 13 -36 1 -18 5 -33 8 -33 10 0 4 -125 -8 -147 -7 -12 -12 -24 -12 -27 0
-3 29 -6 65 -6 l64 0 3 170 c2 94 1 178 -2 186 -4 12 -14 7 -42 -20z m19 -103
c-2 -16 -4 -5 -4 22 0 28 2 40 4 28 2 -13 2 -35 0 -50z m-18 -83 c-1 -55 -5
-100 -11 -100 -5 0 -7 -4 -3 -9 3 -5 1 -12 -5 -16 -11 -7 -11 -13 -16 125 -5
121 -1 139 21 116 12 -12 15 -37 14 -116z m18 -52 c-2 -18 -4 -6 -4 27 0 33 2
48 4 33 2 -15 2 -42 0 -60z"/>
<path d="M3700 1110 l0 -180 55 0 55 0 0 150 c0 143 -1 150 -20 150 -11 0 -20
5 -20 10 0 6 -6 10 -13 10 -7 0 -18 9 -25 20 -27 44 -32 19 -32 -160z m66 95
c12 -11 14 -41 13 -133 -1 -115 -2 -119 -23 -118 -20 1 -21 7 -26 124 -3 67
-3 127 -2 132 5 14 21 12 38 -5z"/>
<path d="M4086 1166 c-3 -14 -3 -32 0 -40 5 -13 -1 -16 -27 -16 l-34 0 3 -90
c3 -88 4 -90 28 -90 13 0 24 5 24 10 0 6 -4 10 -9 10 -12 0 -20 61 -14 108 4
32 10 42 29 46 19 5 24 13 24 41 0 41 -15 54 -24 21z"/>
<path d="M1200 1172 c-8 -3 -18 -9 -21 -14 -5 -8 -39 -19 -66 -20 -14 -1 -18
-54 -4 -60 4 -1 10 -24 13 -50 4 -37 2 -48 -8 -48 -8 0 -14 -10 -14 -24 0 -23
4 -24 65 -28 l65 -3 -2 123 c-1 68 -4 124 -7 126 -3 2 -13 1 -21 -2z m3 -83
c-5 -16 -8 -18 -14 -7 -7 10 -9 9 -9 -4 0 -9 5 -20 10 -23 6 -3 10 -12 10 -18
0 -7 -4 -6 -10 3 -13 20 -13 8 0 -25 9 -23 7 -28 -10 -32 -11 -3 -20 -13 -21
-22 -1 -10 -4 -7 -7 7 -4 12 -5 49 -4 82 3 45 8 60 20 63 28 6 40 -3 35 -24z"/>
<path d="M3869 1178 c0 -2 -1 -58 -2 -126 l-2 -122 55 0 55 0 -3 97 c-4 118
-5 123 -32 118 -12 -2 -28 4 -38 15 -14 17 -31 26 -33 18z m73 -100 c4 -83 2
-118 -5 -118 -4 0 -16 0 -27 0 -18 0 -20 7 -20 80 0 79 0 80 25 80 22 0 25 -4
27 -42z"/>
<path d="M1010 1109 c0 -5 7 -9 15 -9 12 0 15 -14 15 -69 0 -61 -3 -70 -20
-76 -25 -8 -37 -31 -38 -75 -1 -36 12 -69 23 -58 3 3 6 29 7 57 0 49 1 51 28
51 l28 0 -3 92 c-3 92 -4 93 -29 95 -14 1 -26 -2 -26 -8z"/>
<path d="M4089 935 c-1 -11 0 -32 1 -46 0 -15 -6 -34 -15 -43 -9 -9 -12 -16
-6 -16 6 0 11 -3 11 -7 0 -5 -121 -6 -270 -5 -235 3 -270 2 -270 -11 0 -9 4
-17 10 -19 5 -2 10 -69 11 -160 1 -129 3 -158 15 -158 11 0 14 29 14 160 l0
160 235 2 c129 0 241 1 248 2 19 2 37 44 37 90 0 44 -19 89 -21 51z"/>
<path d="M2726 892 c6 -4 10 -15 8 -25 -1 -10 5 -21 14 -24 9 -4 19 -9 22 -12
13 -15 90 -71 97 -71 4 0 24 -18 43 -40 19 -22 41 -40 49 -40 8 0 11 -3 8 -7
-4 -3 -2 -12 4 -20 9 -10 3 -21 -27 -48 -39 -34 -64 -44 -64 -25 0 6 -6 10
-12 10 -7 0 -27 14 -45 30 -18 17 -34 30 -37 30 -4 0 -15 8 -25 18 -36 32 -50
42 -60 42 -5 0 -11 7 -15 15 -3 8 -15 15 -26 15 -14 0 -19 4 -14 12 4 7 3 8
-4 4 -16 -10 -15 -46 1 -46 7 0 23 -13 37 -30 14 -16 31 -30 38 -30 7 0 30
-18 52 -40 22 -22 44 -40 49 -40 18 0 7 -53 -11 -56 -10 -1 -25 -9 -34 -18
-21 -21 -68 -22 -60 -1 3 8 0 15 -6 15 -6 0 -18 7 -27 15 -69 64 -83 75 -96
75 -8 0 -15 -7 -15 -14 0 -17 77 -92 113 -111 25 -13 107 -17 107 -5 0 4 9 10
21 13 11 3 25 19 31 35 9 22 18 29 39 30 52 1 109 43 110 82 0 14 3 19 6 13 6
-16 24 -17 20 -2 -1 6 11 14 28 16 37 5 45 13 17 14 -35 2 -38 3 -57 22 -9 10
-24 16 -31 13 -8 -3 -13 -2 -11 2 3 12 -73 82 -91 82 -15 0 -15 2 -2 10 13 8
13 10 -1 10 -9 0 -28 10 -42 23 -64 56 -80 67 -95 67 -11 0 -13 -3 -6 -8z"/>
<path d="M3354 630 c0 -91 2 -128 3 -82 2 45 2 119 0 165 -1 45 -3 8 -3 -83z"/>
<path d="M3065 699 c-11 -16 2 -22 32 -15 21 6 24 9 12 17 -19 12 -36 11 -44
-2z"/>
<path d="M3370 480 c0 -5 5 -10 10 -10 6 0 10 5 10 10 0 6 -4 10 -10 10 -5 0
-10 -4 -10 -10z"/>
<path d="M3410 451 c-47 -9 -21 -17 61 -20 46 -2 69 2 77 12 10 11 2 14 -46
14 -31 1 -73 -2 -92 -6z"/>
<path d="M2345 432 c-11 -11 -4 -20 18 -26 28 -7 90 9 67 17 -23 8 -80 14 -85
9z"/>
<path d="M2838 13 c7 -3 16 -2 19 1 4 3 -2 6 -13 5 -11 0 -14 -3 -6 -6z"/>
</g>
</svg>
