<svg viewBox="0 0 78 37" fill="none" xmlns="http://www.w3.org/2000/svg" preserveAspectRatio="xMidYMid meet">
  <defs>
    <filter id="glow" x="-20%" y="-20%" width="140%" height="140%">
      <feGaussianBlur stdDeviation="0.8" result="blur" />
      <feComposite in="SourceGraphic" in2="blur" operator="over" />
    </filter>
  </defs>

  <g filter="url(#glow)">
    <path d="M1.70129 13.9223C2.287 14.0092 2.89066 14.056 3.51165 14.056C12.4078 14.056 17.7455 4.4613 17.7455 4.4613" stroke="#008080" stroke-width="3.16573" stroke-linecap="round"/>
    <path d="M17.7454 1.58289V28.448" stroke="#008080" stroke-width="3.16573" stroke-linecap="round" stroke-linejoin="round"/>
    <path d="M1.58286 20.7623C2.24951 20.7609 2.89586 20.764 3.51165 20.7723C10.4681 20.8658 21.3039 21.7317 21.3039 21.7317" stroke="#008080" stroke-width="3.16573" stroke-linecap="round"/>
    <path d="M3.51166 14.0559V20.7722" stroke="#008080" stroke-width="3.16573" stroke-linecap="round"/>
    <path d="M10.6285 12.1371V20.7723" stroke="#008080" stroke-width="3.16573" stroke-linecap="round"/>
    <path d="M21.3039 9.25864L17.7454 4.4613" stroke="#008080" stroke-width="3.95366" stroke-linecap="round"/>
    <path d="M18.902 6.18835C18.902 6.18835 21.4941 9.95564 23.3501 11.6893C25.4007 13.6048 28.7784 15.3992 28.7784 15.3992" stroke="#008080" stroke-width="3.94737" stroke-linecap="round"/>
    <path d="M75.7794 13.9223C75.1937 14.0092 74.5901 14.056 73.9691 14.056C65.0729 14.056 59.7353 4.4613 59.7353 4.4613" stroke="#008080" stroke-width="3.16573" stroke-linecap="round"/>
    <path d="M59.7353 1.58289V28.448" stroke="#008080" stroke-width="3.16573" stroke-linecap="round" stroke-linejoin="round"/>
    <path d="M75.8979 20.7623C75.2312 20.7609 74.5849 20.764 73.9691 20.7723C67.0127 20.8658 56.1768 21.7317 56.1768 21.7317" stroke="#008080" stroke-width="3.16573" stroke-linecap="round"/>
    <path d="M73.9691 14.0559V20.7722" stroke="#008080" stroke-width="3.16573" stroke-linecap="round"/>
    <path d="M66.8522 12.1371V20.7723" stroke="#008080" stroke-width="3.95366" stroke-linecap="round"/>
    <path d="M56.1769 9.25864L59.7353 4.4613" stroke="#008080" stroke-width="3.95366" stroke-linecap="round"/>
    
    <path d="M58.4898 6.31628V19.8768H45.6794L58.4898 6.31628Z" fill="#008080"/>
    <path d="M58.9348 5.54868C58.9348 5.54868 56.0758 9.18803 54.2198 10.9217C52.1692 12.8372 49.149 15.1434 49.149 15.1434" stroke="#008080" stroke-width="3.15789" stroke-linecap="round"/>
    <path d="M49.4152 12.56L45.8885 15.909C45.7198 16.0684 45.6205 16.2934 45.6123 16.5311C45.6038 16.7586 45.6797 16.981 45.8236 17.1511C45.6341 17.2319 45.4436 17.2947 45.2546 17.3346C43.3876 17.7329 41.3799 16.8162 39.8371 17.0613C39.7368 17.0778 39.6401 17.0969 39.5449 17.114C39.2799 17.0427 39.0043 16.9831 38.7115 16.9363C38.5002 16.9029 38.2874 16.889 38.0756 16.889C37.4677 16.8906 36.8612 16.9959 36.2588 17.0926C35.6574 17.1905 35.0626 17.2819 34.5018 17.2819C34.2069 17.2819 33.9222 17.2574 33.6486 17.1979C33.3558 17.1373 33.0422 17.0011 32.724 16.8124C32.7493 16.7225 32.7615 16.6267 32.7585 16.5311C32.7494 16.2934 32.6491 16.0685 32.4813 15.909L28.9547 12.56C26.8714 10.8936 19.4309 21.4093 20.5232 22.6588C21.6136 23.9084 23.5808 25.7817 23.5808 25.7817C23.7424 25.946 23.9598 26.0375 24.1858 26.0322C24.4112 26.0275 24.6255 25.928 24.7806 25.7562L26.1084 24.2849C26.1267 24.3067 26.1454 24.3275 26.1617 24.3498C26.2756 24.488 26.3628 24.6263 26.3973 24.7034C26.5462 25.0358 26.9256 25.8462 27.4314 26.7528C27.6846 27.2058 27.9694 27.6828 28.2749 28.1379C28.4299 28.3667 28.589 28.5915 28.7542 28.8042C28.3063 29.386 28.3093 30.24 28.7977 30.8179C29.3429 31.4645 30.2837 31.5235 30.8993 30.9509L30.9419 30.911C30.6769 31.4657 30.7417 32.1569 31.1566 32.6493C31.7018 33.2949 32.6421 33.3543 33.2577 32.7817L33.4993 32.5509C33.1685 33.1204 33.2137 33.8734 33.657 34.3987C34.2021 35.0432 35.1424 35.1027 35.7575 34.5322L36.1303 34.178C35.7797 34.7523 35.8158 35.5217 36.2682 36.0567C36.8133 36.7022 37.7542 36.7623 38.3692 36.1897L38.9701 35.6473C39.0284 35.676 39.0826 35.702 39.1347 35.727L39.5461 35.979L39.5426 35.9759C39.7467 36.1046 39.9611 36.2088 40.182 36.2816C40.4034 36.3544 40.6324 36.397 40.8654 36.397C41.1188 36.397 41.3776 36.346 41.6173 36.2332C41.86 36.1216 42.0824 35.9483 42.2663 35.7292C42.4872 35.4686 42.6331 35.1628 42.7081 34.8443C42.9269 34.9278 43.1564 34.9698 43.384 34.9698C43.6591 34.9698 43.9336 34.9102 44.189 34.7921C44.4438 34.6741 44.6814 34.497 44.8775 34.2647C45.1206 33.9775 45.2742 33.6356 45.3406 33.2815C45.4703 33.3091 45.6025 33.3246 45.7352 33.3246C46.0093 33.3246 46.2844 33.2661 46.5398 33.147C46.7951 33.0294 47.0317 32.8519 47.2273 32.62C47.4928 32.3053 47.6524 31.925 47.706 31.5358C47.7628 31.5411 47.82 31.5432 47.8763 31.5432C48.2061 31.5432 48.5298 31.4687 48.8288 31.3358C49.1281 31.2018 49.4053 31.0072 49.6297 30.744C49.8365 30.4968 49.9946 30.2086 50.1065 29.898C50.2175 29.5864 50.2833 29.2541 50.2844 28.9132C50.2844 28.7888 50.2752 28.6633 50.254 28.5389C51.4015 27.2 52.0079 24.9698 52.2704 24.3849C52.279 24.3657 52.2881 24.3461 52.2987 24.3263L53.5901 25.7562C53.7441 25.928 53.9584 26.0274 54.1839 26.0322C54.4109 26.0375 54.6282 25.946 54.7898 25.7817C54.7898 25.7817 56.757 23.9084 57.8479 22.6588C58.9383 21.4093 51.4989 10.8936 49.4152 12.56ZM48.9921 29.4567C48.9273 29.6385 48.832 29.8055 48.7384 29.915V29.914C48.6527 30.0171 48.519 30.1171 48.3634 30.1872C48.2073 30.2563 48.0316 30.2941 47.8761 30.2941C47.7742 30.2941 47.6804 30.2777 47.605 30.251C47.5999 30.2489 47.5959 30.2473 47.5913 30.2457L45.8936 28.526C45.657 28.2868 45.28 28.2942 45.0521 28.542C44.8236 28.7903 44.8302 29.1859 45.0667 29.4252L46.4362 30.8125C46.4413 30.8263 46.4458 30.8396 46.4524 30.8535C46.5097 30.971 46.5381 31.1029 46.5381 31.2336C46.537 31.4346 46.4727 31.6293 46.3364 31.7909C46.2558 31.8866 46.162 31.9557 46.0592 32.0036C45.9574 32.0514 45.8459 32.0759 45.735 32.0759C45.543 32.0748 45.3571 32.0067 45.2021 31.8632L45.1671 31.8303C45.161 31.8228 45.1565 31.8143 45.1499 31.8058L43.6614 30.1755C43.4344 29.9256 43.057 29.917 42.82 30.1552C42.5824 30.3935 42.5742 30.7901 42.8017 31.039L44.0632 32.4225C44.0662 32.4273 44.0693 32.4332 44.0718 32.4374C44.1484 32.5704 44.1879 32.7235 44.1879 32.8771C44.1879 33.0787 44.1231 33.2738 43.9862 33.436C43.9062 33.5306 43.812 33.5998 43.7091 33.6487C43.6068 33.6955 43.4959 33.7189 43.3838 33.7189C43.1928 33.7189 43.0063 33.6509 42.8518 33.5079L42.829 33.4882L42.368 33.1L41.6146 32.2599C41.3891 32.0094 41.0127 31.9977 40.7736 32.2344C40.5345 32.4705 40.5228 32.8671 40.7483 33.1176L41.4641 33.9147C41.5376 34.0455 41.5766 34.1933 41.5766 34.3432C41.5761 34.5432 41.5113 34.7389 41.3755 34.8995C41.2939 34.9968 41.2159 35.0531 41.1353 35.091C41.0553 35.1277 40.9697 35.1473 40.8654 35.1478C40.7706 35.1478 40.6612 35.1303 40.5401 35.0898C40.418 35.0494 40.2868 34.9867 40.15 34.9026L40.1464 34.8994L39.9372 34.7717C40.5193 34.1953 40.5644 33.2345 40.0298 32.6012C39.4918 31.9653 38.5692 31.9004 37.9537 32.4481L38.0651 32.3428C38.6797 31.7712 38.7365 30.7837 38.1918 30.1382C37.6467 29.4926 36.7059 29.4331 36.0913 30.0052L35.727 30.3503C36.0781 29.7777 36.0416 29.0066 35.5887 28.4716C35.044 27.8261 34.1043 27.766 33.4882 28.3387L33.0043 28.8013C33.2313 28.2611 33.1554 27.6066 32.7577 27.1353C32.2135 26.4893 31.2722 26.4303 30.6571 27.0019L29.6317 27.9559C29.503 27.7862 29.3738 27.6049 29.2471 27.4166C28.8277 26.7913 28.4335 26.0936 28.1213 25.496C27.8082 24.8983 27.5752 24.3985 27.4734 24.1703C27.4197 24.0507 27.3558 23.9412 27.2869 23.8359C27.1796 23.6716 27.0564 23.519 26.9303 23.3748L31.9672 17.7942C32.4131 18.0786 32.8929 18.311 33.4106 18.4227C33.7795 18.5013 34.1447 18.53 34.502 18.53C35.1823 18.5295 35.8364 18.4248 36.4413 18.327C36.5933 18.3014 36.7427 18.278 36.8882 18.2546C36.4347 18.5832 35.995 18.973 35.5264 19.4308C34.1934 20.7373 33.0418 22.3331 32.4039 23.0584C31.7656 23.7826 32.9522 25.0396 34.8404 24.4632C36.729 23.8879 37.5428 22.4096 37.5428 22.4096L39.9127 21.5168L42.2656 22.0821L47.9531 27.4559L48.9354 28.4534L48.9552 28.4705C48.9937 28.5087 49.0241 28.5534 49.0504 28.6257C49.0768 28.698 49.093 28.7959 49.093 28.9129C49.0934 29.0775 49.058 29.2748 48.9921 29.4567Z" fill="#008080" />
  </g>
</svg>
